<?xml version="1.0" encoding="UTF-8"?>
<svg width="900px" height="229px" viewBox="0 0 900 229" version="1.1" xmlns="http://www.w3.org/2000/svg" xmlns:xlink="http://www.w3.org/1999/xlink">
    <title>overview</title>
    <g id="overview" stroke="none" stroke-width="1" fill="none" fill-rule="evenodd">
        <rect fill="#FFFFFF" x="0" y="0" width="900" height="229"></rect>
        <g id="Group-2" transform="translate(91.000000, 75.000000)">
            <rect id="Rectangle" stroke="#979797" stroke-width="3" x="0" y="0" width="156" height="109" rx="6"></rect>
            <line x1="0.945783133" y1="21.5" x2="156.054217" y2="21.5" id="Line-5" stroke="#979797" stroke-linecap="square"></line>
            <circle id="Oval" fill="#D8D8D8" cx="10.5" cy="10.5" r="4.5"></circle>
            <circle id="Oval" fill="#D8D8D8" cx="22.5" cy="10.5" r="4.5"></circle>
            <circle id="Oval" fill="#D8D8D8" cx="33.5" cy="10.5" r="4.5"></circle>
            <rect id="Rectangle" fill="#E8E8E8" x="10" y="32" width="18" height="18" rx="5"></rect>
            <rect id="Rectangle" fill="#E8E8E8" x="10" y="60" width="18" height="18" rx="5"></rect>
            <rect id="Rectangle" fill="#E8E8E8" x="10" y="89" width="18" height="18" rx="5"></rect>
            <rect id="Rectangle" fill="#F3F3F3" x="39" y="31" width="25" height="5"></rect>
            <rect id="Rectangle" fill="#F3F3F3" x="39" y="39" width="73" height="5"></rect>
            <rect id="Rectangle" fill="#F3F3F3" x="39" y="89" width="25" height="5"></rect>
            <rect id="Rectangle" fill="#F3F3F3" x="39" y="59" width="25" height="5"></rect>
            <rect id="Rectangle" fill="#F3F3F3" x="39" y="68" width="73" height="5"></rect>
        </g>
        <g id="Group-3" transform="translate(651.000000, 75.000000)">
            <rect id="Rectangle" stroke="#979797" stroke-width="2" x="0" y="0" width="180" height="107"></rect>
            <rect id="Rectangle" fill="#F0F0F0" x="0" y="0" width="179" height="15"></rect>
            <line x1="0.221534653" y1="0.5" x2="178.778465" y2="0.5" id="Line-6" stroke="#979797" stroke-linecap="square"></line>
            <line x1="0.222772277" y1="15.5" x2="179.777228" y2="15.5" id="Line-6" stroke="#979797" stroke-linecap="square"></line>
            <line x1="0.222772277" y1="32" x2="179.777228" y2="32" id="Line-6" stroke="#979797" stroke-linecap="square"></line>
            <line x1="0.222772277" y1="46.5" x2="179.777228" y2="46.5" id="Line-6" stroke="#979797" stroke-linecap="square"></line>
            <line x1="0.221534653" y1="62" x2="178.778465" y2="62" id="Line-6" stroke="#979797" stroke-linecap="square"></line>
            <line x1="1.22153465" y1="76.5" x2="179.778465" y2="76.5" id="Line-6" stroke="#979797" stroke-linecap="square"></line>
            <line x1="0.221534653" y1="92" x2="178.778465" y2="92" id="Line-6" stroke="#979797" stroke-linecap="square"></line>
            <line x1="0.5" y1="0.726666667" x2="0.5" y2="108.273333" id="Line-7" stroke="#979797" stroke-linecap="square"></line>
            <line x1="45.5" y1="0.713333333" x2="45.5" y2="106.286667" id="Line-7" stroke="#979797" stroke-linecap="square"></line>
            <line x1="90.5" y1="0.713333333" x2="90.5" y2="106.286667" id="Line-7" stroke="#979797" stroke-linecap="square"></line>
            <line x1="136.5" y1="0.713333333" x2="136.5" y2="106.286667" id="Line-7" stroke="#979797" stroke-linecap="square"></line>
        </g>
        <g id="Group" transform="translate(431.000000, 5.000000)">
            <ellipse id="Oval" fill="#BCBCBC" cx="21" cy="15.5" rx="16" ry="15.5"></ellipse>
            <ellipse id="Oval" fill="#9E9E9E" cx="21" cy="63.5" rx="21" ry="30.5"></ellipse>
            <rect id="Rectangle" fill="#FFFFFF" x="0" y="71" width="42" height="23"></rect>
        </g>
        <text id="Application-UI" font-family="LinLibertineI, Linux Libertine" font-size="16" font-style="italic" font-weight="normal" fill="#222222">
            <tspan x="122.832031" y="207">Application UI</tspan>
        </text>
        <text id="Data-is-synchronized" font-family="LinLibertine, Linux Libertine" font-size="16" font-weight="normal" line-spacing="19" fill="#222222">
            <tspan x="307.972656" y="161">Data is synchronized live in both directions</tspan>
        </text>
        <text id="User-manipulates-tab" font-family="LinLibertineB, Linux Libertine" font-size="16" font-weight="bold" line-spacing="19" fill="#222222">
            <tspan x="548" y="37">User manipulates table to </tspan>
            <tspan x="548" y="56">customize the application</tspan>
        </text>
        <text id="User-continues-to-us" font-family="LinLibertine, Linux Libertine" font-size="16" font-weight="normal" line-spacing="19" fill="#222222">
            <tspan x="218" y="37">User continues to use </tspan>
            <tspan x="218" y="56">original application UI</tspan>
        </text>
        <text id="End-user" font-family="LinLibertineI, Linux Libertine" font-size="16" font-style="italic" font-weight="normal" fill="#222222">
            <tspan x="424.191406" y="95">End user </tspan>
        </text>
        <text id="Table-view-of-data-i" font-family="LinLibertineI, Linux Libertine" font-size="16" font-style="italic" font-weight="normal" fill="#222222">
            <tspan x="698.832031" y="202">Table view of</tspan>
            <tspan x="669.296875" y="220">data in the application</tspan>
        </text>
        <path id="Line-2" d="M257.270842,104.669503 L258.463,108.487 L263.678894,106.85775 L264.156134,106.708613 L264.454409,107.663093 L263.977169,107.81223 L258.762,109.441 L259.955317,113.259822 L250.02276,111.649137 L257.270842,104.669503 Z M275.609893,103.129313 L275.908168,104.083793 L275.430928,104.23293 L269.704048,106.02258 L269.226808,106.171718 L268.928534,105.217238 L269.405773,105.0681 L275.132653,103.27845 L275.609893,103.129313 Z M287.063653,99.550013 L287.361928,100.504493 L286.884688,100.65363 L281.157808,102.44328 L280.680568,102.592418 L280.382293,101.637938 L280.859533,101.4888 L286.586413,99.6991505 L287.063653,99.550013 Z M298.517413,95.970713 L298.815688,96.925193 L298.338448,97.0743305 L292.611568,98.8639805 L292.134328,99.013118 L291.836053,98.058638 L292.313293,97.9095005 L298.040173,96.1198505 L298.517413,95.970713 Z M309.971173,92.3914131 L310.269448,93.3458931 L309.792208,93.4950306 L304.065328,95.2846806 L303.588088,95.433818 L303.289813,94.4793381 L303.767053,94.3302006 L309.493933,92.5405506 L309.971173,92.3914131 Z M321.424932,88.8121132 L321.723207,89.7665932 L321.245967,89.9157307 L315.519087,91.7053806 L315.041847,91.8545181 L314.743572,90.9000382 L315.220812,90.7509007 L320.947692,88.9612507 L321.424932,88.8121132 Z M332.878692,85.2328133 L333.176967,86.1872933 L332.699727,86.3364308 L326.972847,88.1260807 L326.495607,88.2752182 L326.197332,87.3207382 L326.674572,87.1716007 L332.401452,85.3819508 L332.878692,85.2328133 Z M344.332452,81.6535134 L344.630727,82.6079933 L344.153487,82.7571308 L338.426607,84.5467808 L337.949367,84.6959183 L337.651092,83.7414383 L338.128332,83.5923008 L343.855212,81.8026509 L344.332452,81.6535134 Z M355.786212,78.0742134 L356.084486,79.0286934 L355.607247,79.1778309 L349.880367,80.9674809 L349.403127,81.1166184 L349.104852,80.1621384 L349.582092,80.0130009 L355.308972,78.2233509 L355.786212,78.0742134 Z M367.239971,74.4949135 L367.538246,75.4493935 L367.061006,75.598531 L361.334126,77.388181 L360.856886,77.5373185 L360.558611,76.5828385 L361.035851,76.433701 L366.762731,74.644051 L367.239971,74.4949135 Z M378.693731,70.9156136 L378.992006,71.8700936 L378.514766,72.0192311 L372.787886,73.808881 L372.310646,73.9580185 L372.012371,73.0035386 L372.489611,72.8544011 L378.216491,71.0647511 L378.693731,70.9156136 Z M390.147491,67.3363137 L390.445766,68.2907937 L389.968526,68.4399312 L384.241646,70.2295811 L383.764406,70.3787186 L383.466131,69.4242386 L383.943371,69.2751012 L389.670251,67.4854512 L390.147491,67.3363137 Z M401.044683,59.7401775 L410.97724,61.3508625 L403.729158,68.3304973 L401.044683,59.7401775 Z M401.60125,63.7570138 L401.899525,64.7114938 L401.422285,64.8606313 L395.695406,66.6502812 L395.218166,66.7994187 L394.919891,65.8449387 L395.397131,65.6958012 L401.12401,63.9061513 L401.60125,63.7570138 Z" fill="#979797" fill-rule="nonzero"></path>
        <path id="Line-2" d="M639.708091,101.16059 L651,112 L635.553327,114.529881 L637.334,108.799 L637.120702,108.733917 L637.71424,106.824019 L637.927,106.89 L639.708091,101.16059 Z M626.254848,103.262792 L627.209797,103.559561 L632.939494,105.340174 L633.894443,105.636943 L633.300905,107.546842 L632.345956,107.250073 L626.61626,105.46946 L625.66131,105.172691 L626.254848,103.262792 Z M614.795456,99.7015658 L615.750405,99.9983346 L621.480101,101.778948 L622.435051,102.075717 L621.841513,103.985615 L620.886564,103.688847 L615.156868,101.908233 L614.201918,101.611464 L614.795456,99.7015658 Z M603.336064,96.1403393 L604.291013,96.4371082 L610.020709,98.2177214 L610.975659,98.5144903 L610.382121,100.424389 L609.427172,100.12762 L603.697476,98.3470069 L602.742526,98.050238 L603.336064,96.1403393 Z M591.876672,92.5791129 L592.831621,92.8758817 L598.561317,94.656495 L599.516267,94.9532638 L598.922729,96.8631625 L597.96778,96.5663936 L592.238084,94.7857804 L591.283134,94.4890115 L591.876672,92.5791129 Z M580.41728,89.0178864 L581.372229,89.3146553 L587.101925,91.0952685 L588.056875,91.3920374 L587.463337,93.3019361 L586.508388,93.0051672 L580.778692,91.224554 L579.823742,90.9277851 L580.41728,89.0178864 Z M568.957888,85.45666 L569.912837,85.7534288 L575.642533,87.5340421 L576.597483,87.8308109 L576.003945,89.7407096 L575.048996,89.4439407 L569.319299,87.6633275 L568.36435,87.3665586 L568.957888,85.45666 Z M557.498496,81.8954335 L558.453445,82.1922024 L564.183141,83.9728156 L565.138091,84.2695845 L564.544553,86.1794831 L563.589603,85.8827143 L557.859907,84.1021011 L556.904958,83.8053322 L557.498496,81.8954335 Z M546.039104,78.3342071 L546.994053,78.6309759 L552.723749,80.4115891 L553.678698,80.708358 L553.085161,82.6182567 L552.130211,82.3214878 L546.400515,80.5408746 L545.445566,80.2441057 L546.039104,78.3342071 Z M534.579712,74.7729806 L535.534661,75.0697495 L541.264357,76.8503627 L542.219306,77.1471316 L541.625769,79.0570302 L540.670819,78.7602614 L534.941123,76.9796481 L533.986174,76.6828793 L534.579712,74.7729806 Z M523.12032,71.2117541 L524.075269,71.508523 L529.804965,73.2891362 L530.759914,73.5859051 L530.166377,75.4958038 L529.211427,75.1990349 L523.481731,73.4184217 L522.526782,73.1216528 L523.12032,71.2117541 Z M503.946673,58.9701188 L502.165,64.7 L506.886181,66.1666833 L507.84113,66.4634522 L507.247593,68.3733509 L506.292643,68.076582 L501.572,66.609 L499.791909,72.3394096 L488.5,61.5 L503.946673,58.9701188 Z M511.660928,67.6505277 L512.615877,67.9472966 L518.345573,69.7279098 L519.300522,70.0246787 L518.706985,71.9345773 L517.752035,71.6378085 L512.022339,69.8571952 L511.06739,69.5604264 L511.660928,67.6505277 Z" fill="#000000" fill-rule="nonzero"></path>
        <path id="Line-2" d="M259.25,135.75 L259.249,139.75 L265.25,139.75 L265.25,140.75 L259.249,140.75 L259.25,144.75 L250.25,140.25 L259.25,135.75 Z M643.25,135.75 L652.25,140.25 L643.25,144.75 L643.25,140.75 L642.25,140.75 L642.25,139.75 L643.25,139.75 L643.25,135.75 Z M277.25,139.75 L277.25,140.75 L270.25,140.75 L270.25,139.75 L277.25,139.75 Z M289.25,139.75 L289.25,140.75 L282.25,140.75 L282.25,139.75 L289.25,139.75 Z M301.25,139.75 L301.25,140.75 L294.25,140.75 L294.25,139.75 L301.25,139.75 Z M313.25,139.75 L313.25,140.75 L306.25,140.75 L306.25,139.75 L313.25,139.75 Z M325.25,139.75 L325.25,140.75 L318.25,140.75 L318.25,139.75 L325.25,139.75 Z M337.25,139.75 L337.25,140.75 L330.25,140.75 L330.25,139.75 L337.25,139.75 Z M349.25,139.75 L349.25,140.75 L342.25,140.75 L342.25,139.75 L349.25,139.75 Z M361.25,139.75 L361.25,140.75 L354.25,140.75 L354.25,139.75 L361.25,139.75 Z M373.25,139.75 L373.25,140.75 L366.25,140.75 L366.25,139.75 L373.25,139.75 Z M385.25,139.75 L385.25,140.75 L378.25,140.75 L378.25,139.75 L385.25,139.75 Z M397.25,139.75 L397.25,140.75 L390.25,140.75 L390.25,139.75 L397.25,139.75 Z M409.25,139.75 L409.25,140.75 L402.25,140.75 L402.25,139.75 L409.25,139.75 Z M421.25,139.75 L421.25,140.75 L414.25,140.75 L414.25,139.75 L421.25,139.75 Z M433.25,139.75 L433.25,140.75 L426.25,140.75 L426.25,139.75 L433.25,139.75 Z M445.25,139.75 L445.25,140.75 L438.25,140.75 L438.25,139.75 L445.25,139.75 Z M457.25,139.75 L457.25,140.75 L450.25,140.75 L450.25,139.75 L457.25,139.75 Z M469.25,139.75 L469.25,140.75 L462.25,140.75 L462.25,139.75 L469.25,139.75 Z M481.25,139.75 L481.25,140.75 L474.25,140.75 L474.25,139.75 L481.25,139.75 Z M493.25,139.75 L493.25,140.75 L486.25,140.75 L486.25,139.75 L493.25,139.75 Z M505.25,139.75 L505.25,140.75 L498.25,140.75 L498.25,139.75 L505.25,139.75 Z M517.25,139.75 L517.25,140.75 L510.25,140.75 L510.25,139.75 L517.25,139.75 Z M529.25,139.75 L529.25,140.75 L522.25,140.75 L522.25,139.75 L529.25,139.75 Z M541.25,139.75 L541.25,140.75 L534.25,140.75 L534.25,139.75 L541.25,139.75 Z M553.25,139.75 L553.25,140.75 L546.25,140.75 L546.25,139.75 L553.25,139.75 Z M565.25,139.75 L565.25,140.75 L558.25,140.75 L558.25,139.75 L565.25,139.75 Z M577.25,139.75 L577.25,140.75 L570.25,140.75 L570.25,139.75 L577.25,139.75 Z M589.25,139.75 L589.25,140.75 L582.25,140.75 L582.25,139.75 L589.25,139.75 Z M601.25,139.75 L601.25,140.75 L594.25,140.75 L594.25,139.75 L601.25,139.75 Z M613.25,139.75 L613.25,140.75 L606.25,140.75 L606.25,139.75 L613.25,139.75 Z M625.25,139.75 L625.25,140.75 L618.25,140.75 L618.25,139.75 L625.25,139.75 Z M637.25,139.75 L637.25,140.75 L630.25,140.75 L630.25,139.75 L637.25,139.75 Z" fill="#979797" fill-rule="nonzero"></path>
    </g>
</svg>