<?xml version="1.0" encoding="UTF-8"?>
<svg width="400px" height="554px" viewBox="0 0 400 554" version="1.1" xmlns="http://www.w3.org/2000/svg" xmlns:xlink="http://www.w3.org/1999/xlink">
    <title>table-adapter</title>
    <g id="table-adapter" stroke="none" stroke-width="1" fill="none" fill-rule="evenodd">
        <rect id="Rectangle" stroke="#B7B7B7" fill="#F8F8F8" x="19" y="487" width="171" height="56"></rect>
        <rect id="Rectangle" stroke="#BABABA" fill="#F8F8F8" x="19" y="372" width="171" height="56"></rect>
        <rect id="Rectangle" stroke="#BABABA" fill="#F8F8F8" x="19" y="161" width="360" height="36"></rect>
        <rect id="Rectangle" stroke="#BABABA" fill="#F8F8F8" x="230" y="371" width="152" height="56"></rect>
        <rect id="Rectangle" stroke="#B7B7B7" fill="#F8F8F8" x="230" y="487" width="152" height="56"></rect>
        <text id="Web-page-DOM" font-family="LinLibertine, Linux Libertine" font-size="16" font-weight="normal" fill="#222222">
            <tspan x="105" y="511">Web page </tspan>
            <tspan x="105" y="529">DOM</tspan>
        </text>
        <text id="scraped-data" font-family="LinLibertineI, Linux Libertine" font-size="16" font-style="italic" font-weight="normal" fill="#222222">
            <tspan x="35.6015625" y="453">scraped </tspan>
            <tspan x="54.7265625" y="471">data</tspan>
        </text>
        <text id="DOM-edits" font-family="LinLibertineI, Linux Libertine" font-size="16" font-style="italic" font-weight="normal" fill="#222222">
            <tspan x="128" y="453">DOM </tspan>
            <tspan x="128" y="471">edits</tspan>
        </text>
        <text id="Both-table-adapters" font-family="LinLibertineI, Linux Libertine" font-size="16" font-style="italic" font-weight="normal" fill="#222222">
            <tspan x="84" y="331">Both table adapters expose a uniform </tspan>
            <tspan x="84" y="349">table adapter interface</tspan>
        </text>
        <text id="Query-engine-produce" font-family="LinLibertineI, Linux Libertine" font-size="16" font-style="italic" font-weight="normal" fill="#222222">
            <tspan x="61" y="122">Query engine produces a </tspan>
            <tspan x="61" y="140">combined and sorted table</tspan>
        </text>
        <text id="read/write-local-tab" font-family="LinLibertineI, Linux Libertine" font-size="16" font-style="italic" font-weight="normal" fill="#222222">
            <tspan x="289" y="451">read/write </tspan>
            <tspan x="289" y="469">local table</tspan>
        </text>
        <text id="DOM-Scraping-table-a" font-family="LinLibertineB, Linux Libertine" font-size="16" font-weight="bold" fill="#222222">
            <tspan x="49.8007812" y="395">DOM Scraping </tspan>
            <tspan x="54.90625" y="413">table adapter</tspan>
        </text>
        <text id="Local-Storage-table" font-family="LinLibertineB, Linux Libertine" font-size="16" font-weight="bold" fill="#222222">
            <tspan x="258.582031" y="395">Local Storage </tspan>
            <tspan x="259.40625" y="413">table adapter</tspan>
        </text>
        <text id="Query-engine" font-family="LinLibertineB, Linux Libertine" font-size="16" font-weight="bold" fill="#222222">
            <tspan x="150.703125" y="184">Query engine</tspan>
        </text>
        <text id="Browser-local-storag" font-family="LinLibertine, Linux Libertine" font-size="16" font-weight="normal" fill="#222222">
            <tspan x="289" y="509">Browser </tspan>
            <tspan x="289" y="527">local storage</tspan>
        </text>
        <text id="&lt;html&gt;-&lt;/html&gt;" font-family="Courier" font-size="14" font-weight="normal" fill="#787878">
            <tspan x="32" y="510">&lt;html&gt;</tspan>
            <tspan x="32" y="527">&lt;/html&gt;</tspan>
        </text>
        <g id="Group" transform="translate(242.000000, 494.000000)" fill="#D8D8D8" stroke="#979797">
            <ellipse id="Oval" cx="17" cy="37.5" rx="17" ry="3.5"></ellipse>
            <rect id="Rectangle" x="0" y="4" width="34" height="34"></rect>
            <ellipse id="Oval" cx="17" cy="3.5" rx="17" ry="3.5"></ellipse>
        </g>
        <rect id="Rectangle" fill="#F5F5F5" x="19" y="257" width="196" height="19"></rect>
        <rect id="Rectangle" stroke="#979797" x="19" y="225" width="195" height="71"></rect>
        <text id="id" font-family="Courier-Oblique, Courier" font-size="14" font-style="italic" font-weight="normal" fill="#222222">
            <tspan x="20.0986328" y="237">id</tspan>
        </text>
        <text id="1" font-family="Courier" font-size="14" font-weight="normal" fill="#222222">
            <tspan x="23.2993164" y="253">1</tspan>
        </text>
        <text id="300" font-family="Courier" font-size="14" font-weight="normal" fill="#222222">
            <tspan x="167.897949" y="253">300</tspan>
        </text>
        <text id="500" font-family="Courier" font-size="14" font-weight="normal" fill="#222222">
            <tspan x="167.897949" y="271">500</tspan>
        </text>
        <text id="200" font-family="Courier" font-size="14" font-weight="normal" fill="#222222">
            <tspan x="167.897949" y="290">200</tspan>
        </text>
        <text id="2" font-family="Courier" font-size="14" font-weight="normal" fill="#222222">
            <tspan x="23.2993164" y="271">2</tspan>
        </text>
        <text id="3" font-family="Courier" font-size="14" font-weight="normal" fill="#222222">
            <tspan x="23.2993164" y="290">3</tspan>
        </text>
        <text id="title" font-family="Courier-Oblique, Courier" font-size="14" font-style="italic" font-weight="normal" fill="#222222">
            <tspan x="48.496582" y="237">title</tspan>
        </text>
        <text id="points" font-family="Courier-Oblique, Courier" font-size="14" font-style="italic" font-weight="normal" fill="#222222">
            <tspan x="153.295898" y="237">points</tspan>
        </text>
        <text id="Big-news" font-family="Courier" font-size="14" font-weight="normal" fill="#222222">
            <tspan x="48" y="253">Big news</tspan>
        </text>
        <text id="New-product" font-family="Courier" font-size="14" font-weight="normal" fill="#222222">
            <tspan x="48" y="271">New product</tspan>
        </text>
        <text id="Show-HN" font-family="Courier" font-size="14" font-weight="normal" fill="#222222">
            <tspan x="48" y="290">Show HN</tspan>
        </text>
        <line x1="41.5" y1="225.5" x2="42" y2="296.5" id="Line-2" stroke="#979797" stroke-linecap="square"></line>
        <line x1="144.5" y1="225.5" x2="145" y2="296.5" id="Line-2" stroke="#979797" stroke-linecap="square"></line>
        <rect id="Rectangle" fill="#F5F5F5" x="262" y="257" width="117" height="19"></rect>
        <rect id="Rectangle" stroke="#979797" x="262" y="225" width="117" height="71"></rect>
        <text id="id" font-family="Courier-Oblique, Courier" font-size="14" font-style="italic" font-weight="normal" fill="#222222">
            <tspan x="263.098633" y="237">id</tspan>
        </text>
        <text id="1" font-family="Courier" font-size="14" font-weight="normal" fill="#222222">
            <tspan x="266.299316" y="253">1</tspan>
        </text>
        <text id="3" font-family="Courier" font-size="14" font-weight="normal" fill="#222222">
            <tspan x="266.299316" y="271">3</tspan>
        </text>
        <text id="user1" font-family="Courier-Oblique, Courier" font-size="14" font-style="italic" font-weight="normal" fill="#222222">
            <tspan x="291.496582" y="237">user1</tspan>
        </text>
        <text id="read-this" font-family="Courier" font-size="14" font-weight="normal" fill="#222222">
            <tspan x="292" y="253">read this</tspan>
        </text>
        <text id="looks-fun" font-family="Courier" font-size="14" font-weight="normal" fill="#222222">
            <tspan x="292.693848" y="271">looks fun</tspan>
        </text>
        <text id="user1" font-family="Courier-Oblique, Courier" font-size="14" font-style="italic" font-weight="normal" fill="#222222">
            <tspan x="272.496582" y="34">user1</tspan>
        </text>
        <line x1="284.5" y1="225.5" x2="285" y2="296.5" id="Line-2" stroke="#979797" stroke-linecap="square"></line>
        <path id="Line-3" d="M62.3775014,296.541673 L66.8324206,305.564073 L62.831,305.544 L62.542,363.502 L66.5424668,363.522619 L61.9974986,372.499994 L57.5425794,363.477594 L61.543,363.497 L61.832,305.539 L57.8325332,305.519048 L62.3775014,296.541673 Z" fill="#979797" fill-rule="nonzero"></path>
        <path id="Line-3" d="M337.377501,296.541673 L341.832421,305.564073 L337.831,305.544 L337.542,363.502 L341.542467,363.522619 L336.997499,372.499994 L332.542579,363.477594 L336.543,363.497 L336.832,305.539 L332.832533,305.519048 L337.377501,296.541673 Z" fill="#979797" fill-rule="nonzero"></path>
        <path id="Line-3" d="M102.509364,196.806906 L106.840022,205.889604 L102.84,205.814 L102.659,215.51 L106.6584,215.585767 L101.990636,224.499912 L97.659978,215.417214 L101.659,215.492 L101.84,205.796 L97.8416005,205.721051 L102.509364,196.806906 Z" fill="#979797" fill-rule="nonzero"></path>
        <path id="Line-3" d="M247.406959,93.2812505 L251.8942,102.287618 L247.893,102.281 L247.824,151.438 L251.824541,151.443885 L247.311791,160.437499 L242.82455,151.431132 L246.824,151.436 L246.893,102.28 L242.894209,102.274865 L247.406959,93.2812505 Z" fill="#979797" fill-rule="nonzero"></path>
        <path id="Line-3" d="M312.509364,196.806906 L316.840022,205.889604 L312.84,205.814 L312.659,215.51 L316.6584,215.585767 L311.990636,224.499912 L307.659978,215.417214 L311.659,215.492 L311.84,205.796 L307.8416,205.721051 L312.509364,196.806906 Z" fill="#979797" fill-rule="nonzero"></path>
        <rect id="Rectangle" fill="#F5F5F5" x="33" y="54" width="337" height="19"></rect>
        <rect id="Rectangle" stroke="#979797" x="33" y="22" width="337" height="71"></rect>
        <text id="id" font-family="Courier-Oblique, Courier" font-size="14" font-style="italic" font-weight="normal" fill="#222222">
            <tspan x="34.0986328" y="34">id</tspan>
        </text>
        <text id="1" font-family="Courier" font-size="14" font-weight="normal" fill="#222222">
            <tspan x="37.2993164" y="69">1</tspan>
        </text>
        <text id="300" font-family="Courier" font-size="14" font-weight="normal" fill="#222222">
            <tspan x="200.397949" y="69">300</tspan>
        </text>
        <text id="500" font-family="Courier" font-size="14" font-weight="normal" fill="#222222">
            <tspan x="200.397949" y="50">500</tspan>
        </text>
        <text id="200" font-family="Courier" font-size="14" font-weight="normal" fill="#222222">
            <tspan x="200.397949" y="88">200</tspan>
        </text>
        <text id="2" font-family="Courier" font-size="14" font-weight="normal" fill="#222222">
            <tspan x="37.2993164" y="50">2</tspan>
        </text>
        <text id="3" font-family="Courier" font-size="14" font-weight="normal" fill="#222222">
            <tspan x="37.2993164" y="88">3</tspan>
        </text>
        <text id="title" font-family="Courier-Oblique, Courier" font-size="14" font-style="italic" font-weight="normal" fill="#222222">
            <tspan x="62.496582" y="34">title</tspan>
        </text>
        <text id="points-DESC" font-family="Courier-Oblique, Courier" font-size="14" font-style="italic" font-weight="normal" fill="#222222">
            <tspan x="165.29248" y="34">points </tspan>
            <tspan x="224.102051" y="34" font-family="Courier-BoldOblique, Courier" font-weight="bold">DESC</tspan>
        </text>
        <text id="Big-news" font-family="Courier" font-size="14" font-weight="normal" fill="#222222">
            <tspan x="62" y="69">Big news</tspan>
        </text>
        <text id="New-product" font-family="Courier" font-size="14" font-weight="normal" fill="#222222">
            <tspan x="62" y="50">New product</tspan>
        </text>
        <text id="Show-HN" font-family="Courier" font-size="14" font-weight="normal" fill="#222222">
            <tspan x="62" y="88">Show HN</tspan>
        </text>
        <line x1="55.5" y1="22.5" x2="56" y2="93.5" id="Line-2" stroke="#979797" stroke-linecap="square"></line>
        <line x1="158.5" y1="22.5" x2="159" y2="93.5" id="Line-2" stroke="#979797" stroke-linecap="square"></line>
        <line x1="262.5" y1="23.5" x2="263" y2="94.5" id="Line-2" stroke="#979797" stroke-linecap="square"></line>
        <text id="looks-fun" font-family="Courier" font-size="14" font-weight="normal" fill="#222222">
            <tspan x="273.693848" y="86">looks fun</tspan>
        </text>
        <path id="Line-4" d="M94.5,428.078431 L99,437.078431 L95,437.078 L95,486.921569 L94,486.921569 L94,437.078 L90,437.078431 L94.5,428.078431 Z" fill="#979797" fill-rule="nonzero"></path>
        <path id="Line-4" d="M116,428.078431 L116,477.921 L120,477.921569 L115.5,486.921569 L111,477.921569 L115,477.921 L115,428.078431 L116,428.078431 Z" fill="#979797" fill-rule="nonzero"></path>
        <path id="Line-4" d="M264.5,428.078431 L269,437.078431 L265,437.078 L265,486.921569 L264,486.921569 L264,437.078 L260,437.078431 L264.5,428.078431 Z" fill="#979797" fill-rule="nonzero"></path>
        <path id="Line-4" d="M277,427.078431 L277,476.921 L281,476.921569 L276.5,485.921569 L272,476.921569 L276,476.921 L276,427.078431 L277,427.078431 Z" fill="#979797" fill-rule="nonzero"></path>
        <line x1="33.5767918" y1="37.5" x2="370.423208" y2="37.5" id="Line" stroke="#979797" stroke-linecap="square"></line>
        <line x1="19.5" y1="240.5" x2="214.5" y2="240.5" id="Line" stroke="#979797" stroke-linecap="square"></line>
        <line x1="262.5" y1="240.5" x2="379.5" y2="240.5" id="Line" stroke="#979797" stroke-linecap="square"></line>
        <text id="read-this" font-family="Courier" font-size="14" font-weight="normal" fill="#222222">
            <tspan x="273" y="67">read this</tspan>
        </text>
    </g>
</svg>